<?xml version="1.0" encoding="utf-8"?>
<!-- Generator: Adobe Illustrator 28.2.0, SVG Export Plug-In . SVG Version: 6.00 Build 0)  -->
<svg version="1.1" id="Layer_1" xmlns="http://www.w3.org/2000/svg" xmlns:xlink="http://www.w3.org/1999/xlink" x="0px" y="0px"
	 viewBox="0 0 600 600" style="enable-background:new 0 0 600 600;" xml:space="preserve">
<style type="text/css">
	.st0{fill:#FFFFFF;}
	.st1{clip-path:url(#SVGID_00000087403605697951026780000015964251961315137428_);}
</style>
<g>
	<g>
		<path class="st0" d="M235,439.3c0,0.5,0,1,0,1.5c0,0.2,0,0.4,0.1,0.6c0.1,0.2,0.2,0.3,0.3,0.5c0.1,0.1,0.3,0.2,0.5,0.3
			c0.2,0.1,0.4,0.1,0.6,0.1c0.1,0,0.3,0,0.4-0.1c0.3-0.1,0.5-0.2,0.7-0.4c0.3-0.3,0.4-0.7,0.4-1.1c0-0.5,0-1,0-1.5
			c0-0.2,0-0.4-0.1-0.6c-0.1-0.2-0.2-0.3-0.3-0.5c-0.1-0.1-0.3-0.2-0.5-0.3c-0.2-0.1-0.4-0.1-0.6-0.1c-0.1,0-0.3,0-0.4,0.1
			c-0.3,0.1-0.5,0.2-0.7,0.4C235.2,438.6,235,438.9,235,439.3L235,439.3z"/>
	</g>
</g>
<g>
	<defs>
		<circle id="SVGID_1_" cx="300" cy="300" r="290"/>
	</defs>
	<clipPath id="SVGID_00000065753457793950536370000002466285522639300484_">
		<use xlink:href="#SVGID_1_"  style="overflow:visible;"/>
	</clipPath>
	<g style="clip-path:url(#SVGID_00000065753457793950536370000002466285522639300484_);">
		<path d="M-2.5,602.5c0-201.7,0-403.3,0-605c201.7,0,403.3,0,605,0c0,201.7,0,403.3,0,605C400.8,602.5,199.2,602.5-2.5,602.5z
			 M300.4,514.1C418.3,514,514.4,417.8,514,299.6c-0.3-115-89.5-214.1-213.7-214.3C178.5,85.1,87.1,181,86.1,299.1
			C85,417.6,182,514.2,300.4,514.1z"/>
		<path class="st0" d="M300.4,514.1C182,514.2,85,417.6,86.1,299.1c1-118.1,92.4-214,214.3-213.8c124.2,0.2,213.4,99.3,213.7,214.3
			C514.4,417.8,418.3,514,300.4,514.1z M187.3,374.9c-1.2,1.5-2.4,3.5-4,5.1c-6.1,6.1-12.3,12.2-18.6,18.2c-4.5,4.3-5,8.6-0.3,13.1
			c8.4,8.3,16.9,16.5,25.2,24.9c5.1,5.2,9.5,4.1,14-0.8c5.1-5.5,10.6-10.6,15.6-16.2c3.8-4.3,7.4-6,13.3-3.2
			c11,5.2,22.3,9.9,33.7,14.2c5.8,2.2,7.7,5.6,7.4,11.5c-0.4,7.9,0,15.7-0.1,23.6c-0.1,6.9,3.3,10,10.1,9.9
			c10.6-0.1,21.3,0.2,31.9-0.1c9.1-0.2,10.7-2,10.9-11.4c0.2-7.9,0.3-15.8,0-23.6c-0.2-5.1,1.9-7.8,6.5-9.7
			c12.7-5.3,25.1-11.2,37.9-16.2c2.4-1,6.9-0.1,8.9,1.7c6.5,5.7,12.3,12.2,18.3,18.4c4.6,4.9,9,5.7,14,0.4
			c7.9-8.3,15.9-16.4,24-24.4c4.9-4.8,5-9.4,0-14.1c-6-5.7-11.8-11.6-17.8-17.3c-3.1-3-4.5-5.6-2.4-10.3
			c5.4-11.8,10.1-23.9,14.9-35.9c1.8-4.6,4.7-6.7,9.8-6.5c8.3,0.3,16.5,0,24.8,0.1c6.7,0.1,10.3-2.7,10.2-9.8c-0.2-11-0.2-22,0-33.1
			c0.1-6.9-3.1-10.2-9.9-10.1c-7.9,0-15.8-0.5-23.6,0c-6.2,0.3-9.2-2.4-11.4-7.8c-4.7-11.6-9.6-23.3-15.2-34.5
			c-2.9-5.7-2-9.2,2.6-13.2c5.9-5.2,11.2-11.1,17-16.4c5.4-4.8,4.9-9-0.1-13.8c-7.7-7.3-15.2-14.9-22.5-22.5c-5.3-5.5-10-5-15,0.3
			c-5.1,5.4-10.7,10.4-15.8,15.9c-4,4.3-7.6,5.6-13.4,2.7c-11.3-5.6-22.8-10.6-34.5-15.2c-5.8-2.3-7.7-5.7-7.4-11.6
			c0.4-7.9,0-15.7,0.1-23.6c0-6.3-3.1-9.5-9.4-9.5c-11,0-22,0.1-33.1-0.1c-7.6-0.1-10.6,3.8-10.5,11c0.1,7.5-0.3,15,0,22.4
			c0.3,5.9-1.7,9.4-7.4,11.6c-11.7,4.6-23.3,9.5-34.6,15c-5.7,2.8-9.4,1.7-13.4-2.6c-5.3-5.8-11.1-11.2-16.4-17
			c-4.8-5.2-9.1-4.9-13.9,0.1c-7.3,7.7-14.7,15.3-22.5,22.6c-5.8,5.5-4.7,9.9,0.5,14.8c5.4,5.1,10.4,10.8,15.8,15.9
			c4.3,4,5.3,7.8,2.5,13.5c-5.4,10.9-10.2,22.2-14.6,33.5c-2.3,5.9-5.6,8.8-12.2,8.4c-7.8-0.5-15.7,0-23.6-0.1
			c-6.3-0.1-9.4,2.8-9.4,9.3c0.1,11,0.2,22,0,33.1c-0.1,7.5,3.3,10.8,10.7,10.8c8.3-0.1,16.6-0.5,24.8,0.3c3.2,0.3,7.5,2.8,8.9,5.5
			c6.2,12.7,11.6,25.8,17.2,38.8C186.4,372,186.7,373.1,187.3,374.9z"/>
		<path d="M187.3,374.9c-0.6-1.7-0.9-2.9-1.4-4c-5.7-13-11-26.1-17.2-38.8c-1.3-2.7-5.7-5.2-8.9-5.5c-8.2-0.8-16.5-0.4-24.8-0.3
			c-7.3,0.1-10.8-3.3-10.7-10.8c0.2-11,0.1-22,0-33.1c-0.1-6.5,3-9.3,9.4-9.3c7.9,0.1,15.8-0.4,23.6,0.1c6.7,0.4,9.9-2.5,12.2-8.4
			c4.5-11.3,9.3-22.5,14.6-33.5c2.8-5.6,1.8-9.5-2.5-13.5c-5.5-5.1-10.4-10.8-15.8-15.9c-5.2-4.9-6.3-9.4-0.5-14.8
			c7.8-7.3,15.2-14.9,22.5-22.6c4.8-5,9.1-5.4,13.9-0.1c5.3,5.8,11.1,11.2,16.4,17c4,4.4,7.7,5.4,13.4,2.6
			c11.3-5.5,22.9-10.4,34.6-15c5.7-2.2,7.7-5.7,7.4-11.6c-0.4-7.5,0.1-15,0-22.4c-0.1-7.2,2.8-11.1,10.5-11c11,0.2,22,0,33.1,0.1
			c6.3,0,9.4,3.1,9.4,9.5c0,7.9,0.3,15.8-0.1,23.6c-0.3,5.9,1.6,9.3,7.4,11.6c11.7,4.6,23.3,9.6,34.5,15.2c5.8,2.9,9.4,1.5,13.4-2.7
			c5.1-5.5,10.7-10.5,15.8-15.9c5-5.3,9.7-5.9,15-0.3c7.3,7.7,14.8,15.2,22.5,22.5c5,4.8,5.5,8.9,0.1,13.8
			c-5.8,5.3-11.1,11.2-17,16.4c-4.6,4-5.5,7.5-2.6,13.2c5.6,11.2,10.4,22.9,15.2,34.5c2.2,5.4,5.2,8.1,11.4,7.8
			c7.8-0.4,15.7,0.1,23.6,0c6.8,0,10,3.2,9.9,10.1c-0.2,11-0.2,22,0,33.1c0.1,7.1-3.5,9.9-10.2,9.8c-8.3-0.1-16.5,0.3-24.8-0.1
			c-5.1-0.2-8,1.8-9.8,6.5c-4.8,12.1-9.5,24.1-14.9,35.9c-2.1,4.6-0.8,7.3,2.4,10.3c6,5.7,11.8,11.6,17.8,17.3
			c5.1,4.8,4.9,9.3,0,14.1c-8.1,8-16.1,16.2-24,24.4c-5,5.3-9.4,4.5-14-0.4c-6-6.3-11.8-12.7-18.3-18.4c-2-1.8-6.5-2.6-8.9-1.7
			c-12.8,5-25.2,10.9-37.9,16.2c-4.6,1.9-6.7,4.6-6.5,9.7c0.3,7.9,0.2,15.7,0,23.6c-0.3,9.5-1.8,11.2-10.9,11.4
			c-10.6,0.3-21.3,0-31.9,0.1c-6.9,0.1-10.2-3-10.1-9.9c0.1-7.9-0.3-15.8,0.1-23.6c0.3-5.9-1.6-9.3-7.4-11.5
			c-11.4-4.3-22.7-9-33.7-14.2c-5.9-2.8-9.4-1.1-13.3,3.2c-5,5.6-10.5,10.7-15.6,16.2c-4.5,4.9-8.9,6-14,0.8
			c-8.3-8.4-16.7-16.7-25.2-24.9c-4.7-4.6-4.2-8.8,0.3-13.1c6.3-6,12.4-12.1,18.6-18.2C184.9,378.4,186.1,376.4,187.3,374.9z"/>
	</g>
</g>
</svg>
