<?xml version="1.0" encoding="UTF-8"?>
<svg id="Layer_1" data-name="Layer 1" xmlns="http://www.w3.org/2000/svg" viewBox="0 0 600 600">
  <defs>
    <style>
      .cls-1, .cls-2, .cls-3, .cls-4 {
        stroke-width: 0px;
      }

      .cls-2 {
        fill: #fff;
      }

      .cls-3 {
        fill: #f1f1f1;
      }

      .cls-4 {
        fill: #fe2525;
      }
    </style>
  </defs>
  <path class="cls-2" d="M298.5,299.3v1.5c0,.2,0,.4.1.6s.2.3.3.5c.1.1.3.2.5.3.2.1.4.1.6.1.1,0,.3,0,.4-.1.3-.1.5-.2.7-.4.3-.3.4-.7.4-1.1v-1.5c0-.2,0-.4-.1-.6s-.2-.3-.3-.5c-.1-.1-.3-.2-.5-.3-.2-.1-.4-.1-.6-.1-.1,0-.3,0-.4.1-.3.1-.5.2-.7.4-.2.4-.4.7-.4,1.1h0Z"/>
  <g>
    <path class="cls-4" d="M593.89,282.41v40.45c-.8.67-.81.67-.89,1.86-1.58,21.77-5.67,43.06-12.06,63.92-27.92,91.09-99.71,163.52-190.84,192.51-21.58,6.86-43.66,11.14-66.25,12.79-.64.05-1.78-.55-1.89.85h-40.94q-.64-.81-1.83-.9c-22.82-1.73-45.15-5.99-66.91-13.11-62.32-20.37-112.44-57.39-150.32-110.83-23.54-33.2-39.13-69.91-47.15-109.83-2.32-11.55-3.94-23.18-4.83-34.93-.05-.64.54-1.77-.87-1.84v-41.42c.79-.7.8-.7.88-1.88.71-10.45,2.1-20.81,4-31.11,6.13-33.16,17.56-64.37,34.62-93.45,30.02-51.16,71.69-89.9,124.9-116.11,22.35-11.01,45.82-18.84,70.28-23.68,11.63-2.3,23.34-3.95,35.16-4.84.54-.04,1.67.53,1.6-.85h13.65c.13,2.12-.21,4.2-.4,6.31-1.97,21.11-5.59,41.93-10.73,62.49-3.81,15.26-8.79,30.17-12.99,45.32-4.75,17.12-6.06,34.28-1.11,51.61,3.45,12.07,8.73,23.35,14.56,34.4-.57.03-1.13.09-1.7.09-37.52,0-75.04,0-112.57,0-5.02,0-10.02-.12-15.05.45-11.04,1.24-21.71,3.82-31.91,8.22-48.27,20.82-74.46,72.31-62.95,123.69,12.19,54.42,65.62,91.26,120.71,82.91,33.59-5.09,59.32-22.44,77.36-51.18.86-1.37,1.69-1.82,3.25-1.82,28.1.05,56.2.05,84.3,0,1.61,0,2.41.54,3.22,1.87,23.71,38.78,67.51,58.42,112.28,50.41,58.97-10.55,98.51-68.96,86.41-127.66-10.5-50.98-54.69-87.05-106.44-86.97-43.53.07-87.06.06-130.6.08-.73,0-1.46-.05-2.19-.07-.84-1.48-1.67-2.96-2.51-4.44-4.76-8.3-9.18-16.77-12.69-25.69-4.84-12.3-6.87-24.91-4.7-38.12,1.66-10.12,4.75-19.84,7.74-29.58,7.44-24.28,13.38-48.89,16.85-74.07,1.3-9.39,2.11-18.84,3.28-28.24h6.82c-.33,1.2.68.78,1.12.83,3.63.39,7.27.67,10.9,1.06,25.47,2.7,50.24,8.53,73.89,18.28,85.29,35.16,142.64,96.63,171.87,184.14,7.17,21.47,11.15,43.65,12.8,66.23.05.64-.55,1.78.86,1.87Z"/>
    <path class="cls-1" d="M283.52,210.12c-5.84-11.05-11.12-22.33-14.56-34.4-4.95-17.32-3.64-34.48,1.11-51.61,4.2-15.14,9.18-30.06,12.99-45.32,5.14-20.57,8.76-41.38,10.73-62.49.2-2.1.53-4.19.4-6.31h21.44c-1.17,9.41-1.99,18.85-3.28,28.24-3.48,25.18-9.42,49.79-16.85,74.07-2.99,9.75-6.07,19.47-7.74,29.58-2.17,13.21-.14,25.82,4.7,38.12,3.51,8.92,7.93,17.38,12.69,25.69.85,1.48,1.67,2.96,2.51,4.44-8.05,0-16.09-.01-24.14-.02Z"/>
    <path class="cls-3" d="M283.52,210.12c8.05,0,16.09.01,24.14.02.73.03,1.46.07,2.19.07,43.53-.02,87.06-.01,130.6-.08,51.75-.08,95.94,35.98,106.44,86.97,12.09,58.7-27.44,117.11-86.41,127.66-44.77,8.01-88.57-11.63-112.28-50.41-.81-1.33-1.62-1.87-3.22-1.87-28.1.06-56.2.05-84.3,0-1.56,0-2.4.45-3.25,1.82-18.04,28.74-43.77,46.09-77.36,51.18-55.09,8.35-108.52-28.49-120.71-82.91-11.51-51.38,14.68-102.87,62.95-123.69,10.2-4.4,20.86-6.97,31.91-8.22,5.03-.57,10.03-.45,15.05-.45,37.52,0,75.04,0,112.57,0,.57,0,1.13-.06,1.7-.09ZM125.98,333.85c5.68,0,11.37.07,17.05-.04,1.7-.03,2.15.43,2.14,2.13-.08,10.8-.05,21.6-.04,32.4,0,4.47,1.9,6.41,6.35,6.44,6.09.04,12.18.03,18.27,0,4.64-.02,6.48-1.88,6.49-6.5,0-10.72.05-21.44-.04-32.15-.01-1.78.38-2.34,2.26-2.32,10.15.1,20.3.06,30.45.04,4.78,0,6.67-1.88,6.69-6.61.02-5.85,0-11.69,0-17.54,0-5.27-1.7-6.94-7.04-6.95-9.99-.01-19.98-.06-29.96.04-1.97.02-2.41-.58-2.39-2.46.09-10.64.05-21.27.04-31.91,0-4.5-1.88-6.4-6.32-6.41-6.01-.01-12.02,0-18.03,0-4.92,0-6.76,1.83-6.76,6.74,0,10.56-.06,21.11.05,31.67.02,1.99-.61,2.37-2.44,2.36-11.2-.08-22.41-.06-33.62-.03-4.49.01-6.33,1.91-6.34,6.41-.02,6.09-.02,12.18,0,18.27.02,4.45,1.93,6.38,6.39,6.41,5.6.04,11.21,0,16.81,0ZM472.45,274.92c.03-12.07-9.84-22.01-21.94-22.1-12.12-.09-22.23,10-22.16,22.13.06,12.09,10.01,21.99,22.07,21.98,12.09-.02,22.01-9.92,22.04-22ZM514,317.04c.02-12.25-9.61-21.96-21.84-22.01-12.25-.06-22.01,9.57-22.08,21.77-.07,12.35,9.65,22.16,21.96,22.15,12.22,0,21.94-9.7,21.96-21.91ZM450.66,336.42c-12.22-.02-21.95,9.66-21.99,21.88-.04,12.22,9.65,22.02,21.82,22.07,12.34.05,22.12-9.69,22.1-22.01-.02-12.24-9.69-21.91-21.93-21.93ZM430.73,317.04c.04-12.23-9.62-21.96-21.85-22.01-12.24-.05-22.03,9.6-22.1,21.77-.06,12.34,9.67,22.15,21.98,22.15,12.22,0,21.92-9.68,21.96-21.91ZM272.61,297.55c3.16,0,6.32-.03,9.48.02,1.12.02,1.78-.1,1.76-1.53-.08-5.18-.06-10.37,0-15.55.01-1.19-.39-1.51-1.53-1.5-6.48.04-12.96.05-19.44,0-1.19,0-1.51.39-1.5,1.53.05,5.18.05,10.37,0,15.55-.01,1.16.36,1.54,1.52,1.52,3.24-.07,6.48-.02,9.72-.02ZM334.45,297.55c3.24,0,6.48-.04,9.72.02,1.15.02,1.55-.33,1.54-1.51-.06-5.18-.05-10.37,0-15.55.01-1.17-.35-1.53-1.52-1.52-6.48.05-12.96.05-19.44,0-1.15,0-1.54.33-1.53,1.51.05,5.18.07,10.37,0,15.55-.02,1.42.63,1.55,1.76,1.53,3.16-.05,6.32-.02,9.48-.02Z"/>
    <path class="cls-1" d="M125.98,333.85c-5.6,0-11.21.03-16.81,0-4.47-.03-6.38-1.95-6.39-6.41-.02-6.09-.02-12.18,0-18.27.01-4.5,1.85-6.4,6.34-6.41,11.21-.04,22.41-.05,33.62.03,1.83.01,2.46-.37,2.44-2.36-.11-10.55-.06-21.11-.05-31.67,0-4.91,1.84-6.74,6.76-6.74,6.01,0,12.02-.01,18.03,0,4.44,0,6.32,1.9,6.32,6.41.01,10.64.05,21.27-.04,31.91-.02,1.87.43,2.48,2.39,2.46,9.99-.1,19.97-.05,29.96-.04,5.34,0,7.03,1.68,7.04,6.95,0,5.85.01,11.69,0,17.54-.01,4.73-1.9,6.61-6.69,6.61-10.15.02-20.3.06-30.45-.04-1.87-.02-2.27.54-2.26,2.32.08,10.72.05,21.44.04,32.15,0,4.62-1.84,6.48-6.49,6.5-6.09.03-12.18.04-18.27,0-4.45-.03-6.34-1.97-6.35-6.44-.01-10.8-.04-21.6.04-32.4.01-1.71-.44-2.16-2.14-2.13-5.68.11-11.37.04-17.05.04Z"/>
    <path class="cls-1" d="M472.45,274.92c-.03,12.08-9.95,21.98-22.04,22-12.06.02-22.01-9.89-22.07-21.98-.06-12.13,10.04-22.22,22.16-22.13,12.11.09,21.97,10.03,21.94,22.1Z"/>
    <path class="cls-1" d="M514,317.04c-.02,12.21-9.74,21.9-21.96,21.91-12.31,0-22.03-9.8-21.96-22.15.07-12.2,9.83-21.83,22.08-21.77,12.23.06,21.86,9.77,21.84,22.01Z"/>
    <path class="cls-1" d="M450.66,336.42c12.24.02,21.91,9.69,21.93,21.93.02,12.32-9.76,22.06-22.1,22.01-12.17-.05-21.86-9.85-21.82-22.07.04-12.22,9.77-21.89,21.99-21.88Z"/>
    <path class="cls-1" d="M430.73,317.04c-.04,12.23-9.74,21.91-21.96,21.91-12.31,0-22.04-9.81-21.98-22.15.06-12.17,9.86-21.82,22.1-21.77,12.23.05,21.88,9.78,21.85,22.01Z"/>
    <path class="cls-1" d="M272.61,297.55c-3.24,0-6.48-.04-9.72.02-1.17.02-1.53-.35-1.52-1.52.05-5.18.05-10.37,0-15.55-.01-1.14.31-1.54,1.5-1.53,6.48.05,12.96.05,19.44,0,1.14,0,1.55.31,1.53,1.5-.06,5.18-.07,10.37,0,15.55.02,1.43-.64,1.55-1.76,1.53-3.16-.05-6.32-.02-9.48-.02Z"/>
    <path class="cls-1" d="M334.45,297.55c-3.16,0-6.32-.03-9.48.02-1.13.02-1.79-.11-1.76-1.53.08-5.18.06-10.37,0-15.55-.01-1.17.38-1.51,1.53-1.51,6.48.05,12.96.05,19.44,0,1.17,0,1.53.36,1.52,1.52-.05,5.18-.06,10.37,0,15.55.01,1.19-.39,1.54-1.54,1.51-3.24-.06-6.48-.02-9.72-.02Z"/>
  </g>
</svg>