<?xml version="1.0" encoding="utf-8"?>
<!-- Generator: Adobe Illustrator 28.2.0, SVG Export Plug-In . SVG Version: 6.00 Build 0)  -->
<svg version="1.1" id="Layer_1" xmlns="http://www.w3.org/2000/svg" xmlns:xlink="http://www.w3.org/1999/xlink" x="0px" y="0px"
	 viewBox="0 0 512 512" style="enable-background:new 0 0 512 512;" xml:space="preserve">
<style type="text/css">
	.st0{fill:#FFFFFF;}
</style>
<path class="st0" d="M168,80c-13.3,0-24,10.7-24,24v304c0,8.4-1.4,16.5-4.1,24H440c13.3,0,24-10.7,24-24V104c0-13.3-10.7-24-24-24
	H168z M72,480c-39.8,0-72-32.2-72-72V112c0-13.3,10.7-24,24-24s24,10.7,24,24v296c0,13.3,10.7,24,24,24s24-10.7,24-24V104
	c0-39.8,32.2-72,72-72h272c39.8,0,72,32.2,72,72v304c0,39.8-32.2,72-72,72H72z M176,136c0-13.3,10.7-24,24-24h96
	c13.3,0,24,10.7,24,24v80c0,13.3-10.7,24-24,24h-96c-13.3,0-24-10.7-24-24V136z M376,112h32c13.3,0,24,10.7,24,24s-10.7,24-24,24
	h-32c-13.3,0-24-10.7-24-24S362.7,112,376,112z M376,192h32c13.3,0,24,10.7,24,24s-10.7,24-24,24h-32c-13.3,0-24-10.7-24-24
	S362.7,192,376,192z M200,272h208c13.3,0,24,10.7,24,24s-10.7,24-24,24H200c-13.3,0-24-10.7-24-24S186.7,272,200,272z M200,352h208
	c13.3,0,24,10.7,24,24s-10.7,24-24,24H200c-13.3,0-24-10.7-24-24S186.7,352,200,352z"/>
</svg>
