<?xml version="1.0" encoding="utf-8"?>
<!-- Generator: Adobe Illustrator 28.2.0, SVG Export Plug-In . SVG Version: 6.00 Build 0)  -->
<svg version="1.1" id="Layer_1" xmlns="http://www.w3.org/2000/svg" xmlns:xlink="http://www.w3.org/1999/xlink" x="0px" y="0px"
	 viewBox="0 0 512 512" style="enable-background:new 0 0 512 512;" xml:space="preserve">
<style type="text/css">
	.st0{fill:#FFFFFF;}
</style>
<g>
	<path class="st0" d="M464,256c0-114.9-93.1-208-208-208S48,141.1,48,256s93.1,208,208,208S464,370.9,464,256z M0,256
		C0,114.6,114.6,0,256,0s256,114.6,256,256S397.4,512,256,512S0,397.4,0,256z"/>
	<path class="st0" d="M284.5,99.5c0-15.7-12.7-28.5-28.5-28.5s-28.5,12.7-28.5,28.5v128.1H99.5C83.7,227.5,71,240.3,71,256
		s12.7,28.5,28.5,28.5h128.1v128.1c0,15.7,12.7,28.5,28.5,28.5s28.5-12.7,28.5-28.5V284.5h128.1c15.7,0,28.5-12.7,28.5-28.5
		s-12.7-28.5-28.5-28.5H284.5V99.5z"/>
</g>
</svg>
