<?xml version="1.0" encoding="utf-8"?>
<!-- Generator: Adobe Illustrator 28.2.0, SVG Export Plug-In . SVG Version: 6.00 Build 0)  -->
<svg version="1.1" id="Layer_1" xmlns="http://www.w3.org/2000/svg" xmlns:xlink="http://www.w3.org/1999/xlink" x="0px" y="0px"
	 viewBox="0 0 512 512" style="enable-background:new 0 0 512 512;" xml:space="preserve">
<style type="text/css">
	.st0{fill:#FFFFFF;}
</style>
<g>
	<path class="st0" d="M62,152h118H332h118c18.7,0.1,33.8-15.2,33.9-33.9c0.1-18.7-15.1-33.9-33.9-33.9H62c-18.8,0-34,15.2-33.9,33.9
		C28.2,136.8,43.3,152.1,62,152z"/>
	<path class="st0" d="M450,222.1H62c-18.8,0-34,15.2-33.9,33.9c0.1,18.7,15.2,34,33.9,33.9h118H332h118
		c18.7,0.1,33.8-15.2,33.9-33.9C484,237.3,468.8,222.1,450,222.1z"/>
	<path class="st0" d="M450,360H62c-18.8,0-34,15.2-33.9,33.9c0.1,18.7,15.2,34,33.9,33.9h118H332h118c18.7,0.1,33.8-15.2,33.9-33.9
		C484,375.2,468.8,360,450,360z"/>
</g>
</svg>
