<?xml version="1.0" encoding="utf-8"?>
<!-- Generator: Adobe Illustrator 28.2.0, SVG Export Plug-In . SVG Version: 6.00 Build 0)  -->
<svg version="1.1" id="Layer_1" xmlns="http://www.w3.org/2000/svg" xmlns:xlink="http://www.w3.org/1999/xlink" x="0px" y="0px"
	 viewBox="0 0 1040.1 771.1" style="enable-background:new 0 0 1040.1 771.1;" xml:space="preserve">
<style type="text/css">
	.st0{fill:#FFFFFF;}
</style>
<g>
	<path class="st0" d="M782.3,424.9h-28.7c87-14.6,153.5-90.5,153.5-181.6c0-101.5-82.6-184.1-184.1-184.1
		c-39.4,0-77,12.3-108.9,35.6l-26.8,19.6c11.8,18.7,20.6,39.5,25.9,61.7c4.6,15.1,7,31,7,46.9c0,16.6-2.5,32.7-7.3,48.1
		c-7.4,30.4-21.5,58.2-40.8,81.6l20.6,20.7c27.9,27.9,63.1,45.8,101.3,51.8c0,0-106.7,4.4-106.7,4.4l1.9,1.6
		c26.6,12.9,51.2,30.4,72.8,51.9c18.4,18.4,33.7,39,45.9,61.1c22.1,34,34.2,74,34.2,115.5V670c0,4.4-0.7,8.7-2.2,12.8
		c-2.6,21-10.4,42.7-26.2,55.3l-13.1,14.4h247.5c44.6,0,80.9-36.3,80.9-80.9C1029,535.6,918.3,424.9,782.3,424.9z M723,343.6
		c-15.8,0-31.2-3.6-45-10.6c17-33.9,26-71.6,26-110c0-25.7-4-50.9-11.8-75.2c9.9-3.2,20.2-4.8,30.8-4.8c55.3,0,100.3,45,100.3,100.3
		S778.3,343.6,723,343.6z M825.8,668.7v-8.9c0-53.9-14.2-105.5-41.4-151.1c87.9,1.1,159.2,72.2,160.7,160H825.8z"/>
	<path class="st0" d="M90.7,752.5c-43.9,0-79.6-35.7-79.6-79.6c0-71.7,27.9-139.1,78.6-189.7c43-43,98.1-69.6,157.6-76.7
		C179.7,373.1,133,303.4,133,223c0-112.7,91.7-204.4,204.4-204.4S541.9,110.3,541.9,223c0,80.4-46.6,150.1-114.3,183.5
		c59.5,7.1,114.6,33.7,157.6,76.7c50.7,50.7,78.6,118,78.6,189.7c0,43.9-35.7,79.6-79.6,79.6H90.7z M579.9,668.7
		c-2.2-99.8-84.1-180.3-184.5-180.3H279.4c-100.3,0-182.2,80.5-184.5,180.3H579.9z M337.5,102.4c-66.5,0-120.6,54.1-120.6,120.6
		S271,343.6,337.5,343.6S458.1,289.5,458.1,223S404,102.4,337.5,102.4z"/>
</g>
</svg>
