<?xml version="1.0" encoding="utf-8"?>
<!-- Generator: Adobe Illustrator 28.2.0, SVG Export Plug-In . SVG Version: 6.00 Build 0)  -->
<svg version="1.1" id="Layer_1" xmlns="http://www.w3.org/2000/svg" xmlns:xlink="http://www.w3.org/1999/xlink" x="0px" y="0px"
	 viewBox="0 0 512 512" style="enable-background:new 0 0 512 512;" xml:space="preserve">
<style type="text/css">
	.st0{fill:#FFFFFF;}
</style>
<path class="st0" d="M464,256c0-114.9-93.1-208-208-208S48,141.1,48,256s93.1,208,208,208S464,370.9,464,256z M0,256
	C0,114.6,114.6,0,256,0s256,114.6,256,256S397.4,512,256,512S0,397.4,0,256z"/>
<path class="st0" d="M192.1,144c-13.3,0-24,10.7-24,24s10.7,24,24,24h94.1L151.1,327c-9.4,9.4-9.4,24.6,0,33.9s24.6,9.4,33.9,0
	l135-135V328c0,13.3,10.7,24,24,24s24-10.7,24-24V168c0-13.3-10.7-24-24-24H192.1z"/>
</svg>
